<svg width="120" height="32" viewBox="0 0 120 32" fill="none" xmlns="http://www.w3.org/2000/svg">
<path d="M0 13.8526H4.90825C4.90825 12.5461 5.42537 11.293 6.34585 10.3692C7.26632 9.44532 8.51476 8.92631 9.81651 8.92631H19.6342C20.936 8.92631 22.1844 9.44532 23.1049 10.3692C24.0254 11.293 24.5425 12.5461 24.5425 13.8526H29.4507C29.4507 11.2395 28.4165 8.73349 26.5755 6.88576C24.7346 5.03804 22.2377 4 19.6342 4H9.81651C7.21301 4 4.71614 5.03804 2.87519 6.88576C1.03424 8.73349 0 11.2395 0 13.8526Z" fill="#5C69ED"/>
<path d="M29.4507 18.7793H24.5425C24.5425 20.0858 24.0254 21.3389 23.1049 22.2627C22.1844 23.1866 20.936 23.7056 19.6342 23.7056H9.81651C8.51476 23.7056 7.26633 23.1866 6.34585 22.2627C5.42537 21.3389 4.90825 20.0858 4.90825 18.7793H0C0.000318362 21.3923 1.03466 23.8981 2.87554 25.7458C4.71642 27.5934 7.21311 28.6316 9.81651 28.6319H19.6342C22.2376 28.6316 24.7343 27.5934 26.5752 25.7458C28.4161 23.8981 29.4504 21.3923 29.4507 18.7793Z" fill="#5C69ED"/>
<path d="M24.5412 13.8535H4.9082V18.7798H24.5412V13.8535Z" fill="#5C69ED"/>
<path d="M43.9389 25.028C47.7309 25.028 50.4865 23.1203 50.4865 19.7051C50.4865 16.078 47.6602 15.2537 44.198 14.5C41.7014 13.9583 40.5238 13.5579 40.5238 12.1918C40.5238 10.9907 41.7249 10.2134 43.562 10.2134C45.3049 10.2134 46.6239 11.0613 46.8123 12.7571H50.0861C49.827 9.36554 47.3776 7.50488 43.5856 7.50488C39.8407 7.50488 37.1322 9.22422 37.1322 12.5451C37.1322 16.0545 39.8878 16.8553 42.9026 17.5383C45.4698 18.1271 47.0714 18.4568 47.0714 20.1055C47.0714 21.66 45.5405 22.2724 43.7976 22.2724C41.3952 22.2724 40.2411 21.4716 40.0056 19.446H36.6611C36.7789 23.0025 39.3697 25.028 43.9389 25.028Z" fill="#313139"/>
<path d="M52.2671 24.6512H55.4703V12.5687H52.2671V24.6512ZM52.2671 10.6845H55.4703V7.81107H52.2671V10.6845Z" fill="#313139"/>
<path d="M57.5343 24.6512H60.7374V17.6325C60.7374 16.0309 61.6089 14.9946 62.9042 14.9946C64.0819 14.9946 64.7649 15.7012 64.7649 17.0672V24.6512H67.9681V17.6325C67.9681 16.0309 68.7924 14.9946 70.1349 14.9946C71.3125 14.9946 71.9955 15.7012 71.9955 17.0672V24.6512H75.1987V16.5255C75.1987 13.8876 73.762 12.239 71.2183 12.239C69.6874 12.239 68.4156 13.0397 67.5912 14.3587H67.5441C66.9553 13.0868 65.7306 12.239 64.1996 12.239C62.5274 12.239 61.3498 13.0868 60.6903 14.1938H60.6196V12.5687H57.5343V24.6512Z" fill="#313139"/>
<path d="M77.1768 28.608H80.3799V23.2851H80.427C81.11 24.3214 82.217 25.0045 83.9128 25.0045C87.0217 25.0045 89.1415 22.5314 89.1415 18.6217C89.1415 14.8533 87.0924 12.239 83.8892 12.239C82.2406 12.239 81.11 13.0162 80.3328 14.0761H80.2621V12.5687H77.1768V28.608ZM83.2298 22.343C81.322 22.343 80.3092 20.9063 80.3092 18.7159C80.3092 16.5491 81.11 14.8297 83.112 14.8297C85.0904 14.8297 85.8912 16.4313 85.8912 18.7159C85.8912 21.0005 84.8549 22.343 83.2298 22.343Z" fill="#313139"/>
<path d="M90.6792 24.6512H93.8823V7.81107H90.6792V24.6512Z" fill="#313139"/>
<path d="M95.9912 24.6512H99.1944V12.5687H95.9912V24.6512ZM95.9912 10.6845H99.1944V7.81107H95.9912V10.6845Z" fill="#313139"/>
<path d="M100.552 14.7826H102.2V24.6512H105.404V14.7826H107.57V12.5687H105.404V11.6737C105.404 10.4254 106.063 10.237 107.57 10.3076V7.83462C104.485 7.50488 102.2 8.5412 102.2 11.4853V12.5687H100.552V14.7826Z" fill="#313139"/>
<path d="M109.637 28.608H111.521C113.97 28.608 114.865 27.6424 115.784 24.9574L120 12.5687H116.773L115.077 18.0093C114.7 19.1163 114.371 20.6472 114.371 20.6472H114.324C114.324 20.6472 113.923 19.1163 113.546 18.0093L111.756 12.5687H108.388L111.639 21.1654C112.322 23.0025 112.557 23.7797 112.557 24.4392C112.557 25.4284 112.039 26.0879 110.767 26.0879H109.637V28.608Z" fill="#313139"/>
</svg>
